HIERARCHY
ROOT Hips
{
     OFFSET 16.70420 99.52260 -9.37912
     CHANNELS 6 Xposition Yposition Zposition Zrotation Xrotation Yrotation
     JOINT Spine
     {
          OFFSET 0.00000 11.89050 0.00000
          CHANNELS 3 Zrotation Xrotation Yrotation
          JOINT Spine1
          {
               OFFSET 0.00000 25.65740 0.12766
               CHANNELS 3 Zrotation Xrotation Yrotation
               JOINT HEad
               {
                    OFFSET 0.00000 8.73416 0.01134
                    CHANNELS 3 Zrotation Xrotation Yrotation
                    End Site
                    {
                         OFFSET -0.29000 12.77420 2.51395
                    }
               }
               JOINT LeftShoulder1
               {
                    OFFSET 8.99000 -0.36225 -0.22000
                    CHANNELS 3 Zrotation Xrotation Yrotation
                    JOINT LeftArm
                    {
                         OFFSET 10.28270 -0.00338 0.32212
                         CHANNELS 3 Zrotation Xrotation Yrotation
                         JOINT LeftForeArm
                         {
                              OFFSET 32.76690 0.09914 -1.42434
                              CHANNELS 3 Zrotation Xrotation Yrotation
                              JOINT LeftHand
                              {
                                   OFFSET 27.56430 0.08536 1.02216
                                   CHANNELS 3 Zrotation Xrotation Yrotation
                                   End Site
                                   {
                                        OFFSET 16.74430 -0.60000 1.50291
                                   }
                              }
                         }
                    }
               }
               JOINT RightShoulder
               {
                    OFFSET -8.99000 -0.36225 -0.22000
                    CHANNELS 3 Zrotation Xrotation Yrotation
                    JOINT RightArm
                    {
                         OFFSET -10.28270 -0.00338 0.32212
                         CHANNELS 3 Zrotation Xrotation Yrotation
                         JOINT RightForeArm
                         {
                              OFFSET -32.89710 0.09914 -1.42434
                              CHANNELS 3 Zrotation Xrotation Yrotation
                              JOINT RightHand
                              {
                                   OFFSET -27.49210 0.08536 1.02216
                                   CHANNELS 3 Zrotation Xrotation Yrotation
                                   End Site
                                   {
                                        OFFSET -16.63120 -0.60000 1.50291
                                   }
                              }
                         }
                    }
               }
          }
     }
     JOINT LeftUpLeg
     {
          OFFSET 8.94580 -8.66707 0.10165
          CHANNELS 3 Zrotation Xrotation Yrotation
          JOINT LeftLeg
          {
               OFFSET -0.00000 -44.42270 1.37270
               CHANNELS 3 Zrotation Xrotation Yrotation
               JOINT LeftFoot
               {
                    OFFSET -0.25355 -42.09240 -1.46059
                    CHANNELS 3 Zrotation Xrotation Yrotation
                    JOINT LeftToes
                    {
                         OFFSET -0.04000 -4.41509 8.49910
                         CHANNELS 3 Zrotation Xrotation Yrotation
                         End Site
                         {
                              OFFSET 0.08000 -0.04745 9.77979
                         }
                    }
               }
          }
     }
     JOINT RightUpLeg
     {
          OFFSET -8.94580 -8.66707 0.10165
          CHANNELS 3 Zrotation Xrotation Yrotation
          JOINT RightLeg
          {
               OFFSET 0.00000 -44.42270 1.37270
               CHANNELS 3 Zrotation Xrotation Yrotation
               JOINT RightFoot
               {
                    OFFSET 0.25355 -42.09240 -1.46059
                    CHANNELS 3 Zrotation Xrotation Yrotation
                    JOINT RightToes
                    {
                         OFFSET 0.04000 -4.41509 8.49910
                         CHANNELS 3 Zrotation Xrotation Yrotation
                         End Site
                         {
                              OFFSET -0.08000 -0.13745 9.77979
                         }
                    }
               }
          }
     }
}
MOTION
Frames: 7
Frame Time: 0.01667
16.70420 99.52260 -9.37912 1.86533 -3.75512 -32.35150 -0.80406 2.57735 3.14851 -0.70358 5.07112 6.14189 -4.30907 3.27305 24.48790 -0.00000 -0.00000 0.00000 -97.35140 -35.33650 -104.83400 -16.45310 25.68620 -76.34120 5.55594 9.67997 -0.87718 6.23211 0.63387 3.24113 50.81660 -13.02300 96.60690 2.66553 0.50973 74.37640 -5.55712 9.68432 0.87760 3.57737 -7.51483 2.15366 -7.23635 21.32060 18.65760 -2.13436 -8.25354 0.02318 0.55571 -11.69200 -1.85243 -10.91140 4.04107 -4.28462 8.15012 24.58600 -16.00770 2.82243 -16.47570 -0.00893 -2.34654 -4.09250 -1.06163 
16.51620 99.32300 -9.74228 1.82154 -3.56206 -32.94500 -0.20938 2.54911 3.22411 -0.57763 5.07301 6.44322 -4.94816 2.81455 24.85490 -0.00000 -0.00000 0.00000 -99.48990 -35.70480 -105.85700 -17.10070 26.98160 -76.79310 5.55594 9.67997 -0.87718 5.92475 0.61973 3.23590 51.05960 -12.78360 97.02870 2.77804 0.83756 74.72310 -5.55712 9.68432 0.87760 4.09075 -8.49750 3.07979 -6.90573 22.72040 18.84490 -2.14495 -5.91143 0.05303 0.74375 -17.20440 -3.41088 -10.59410 4.14612 -3.88716 8.33638 23.67010 -16.13970 3.04872 -17.05780 0.02098 -2.85979 -4.63311 -0.81798 
16.44710 99.07660 -10.14400 1.44891 -3.89280 -33.33690 0.10453 2.78524 3.30424 -0.37680 5.56765 6.65357 -5.59698 2.41164 25.15670 -0.00000 -0.00000 0.00000 -101.58100 -35.88970 -106.94500 -17.74410 28.23080 -77.17120 5.55594 9.67997 -0.87718 5.64600 0.60542 3.21488 51.49170 -12.72520 97.47810 2.98522 1.34800 75.13440 -5.55712 9.68432 0.87760 4.98163 -9.58625 2.58524 -7.78492 25.51990 18.59440 -4.40944 -7.47116 0.03682 0.68124 -13.73980 -2.78204 -9.96155 4.70466 -4.39568 7.21714 23.43620 -15.47790 2.13533 -17.14060 -0.05461 -3.95342 -5.32352 0.70937 
16.26190 98.88680 -10.55490 1.25257 -3.94628 -33.85690 0.27822 2.93213 3.47231 -0.16665 5.87662 7.01079 -6.18686 2.05935 25.48050 -0.00000 -0.00000 0.00000 -103.54100 -35.92460 -108.03200 -18.34700 29.35780 -77.44050 5.55594 9.67997 -0.87718 5.40095 0.59201 3.18624 52.00130 -12.78360 97.94220 3.22776 1.91105 75.54620 -5.55712 9.68432 0.87760 5.86688 -10.93580 2.86846 -7.50525 28.45290 18.17660 -13.61980 -8.00109 -0.00866 1.04230 -11.19610 -5.62416 -9.66497 5.04389 -4.16532 7.19000 22.66490 -15.83160 0.90787 -15.16740 -0.16127 -7.31340 -9.26607 1.70009 
16.06750 98.63070 -11.06330 0.83739 -3.92650 -34.16930 0.83933 3.08874 3.55785 0.11405 6.22963 7.28195 -6.64749 1.68520 25.86740 -0.00000 -0.00000 0.00000 -105.28800 -35.83520 -109.07900 -18.86960 30.28700 -77.59060 5.55594 9.67997 -0.87718 5.21542 0.58111 3.15535 52.51040 -12.91460 98.42710 3.46318 2.43925 75.93010 -5.55712 9.68432 0.87760 7.54112 -12.66460 3.25407 -8.28558 32.73280 15.92810 -22.75580 -14.67600 -1.36320 0.58728 7.17613 -2.73164 -9.06204 5.15417 -4.16182 6.99936 22.74640 -14.73870 0.78888 -15.93020 -0.16896 -7.40082 -9.56938 1.20910 
15.95210 98.32960 -11.54480 0.81335 -3.91370 -34.29360 1.28159 3.18265 3.60960 0.15725 6.46337 7.46902 -6.98959 1.26171 26.28370 -0.00000 -0.00000 0.00000 -106.74000 -35.63670 -110.05700 -19.26890 30.94640 -77.63700 5.55594 9.67997 -0.87718 5.09363 0.57279 3.12116 53.04330 -13.09630 98.95490 3.68415 2.92972 76.29940 -5.55712 9.68432 0.87760 8.65337 -14.72070 3.73614 -10.14390 34.92100 17.82490 -12.14370 -6.86661 0.11058 1.00895 -10.99090 -5.33997 -8.91343 4.89252 -4.18656 6.96197 23.11260 -14.75860 1.55432 -17.67890 -0.09985 -7.41294 -9.11001 2.42324 
15.81150 97.97180 -11.94600 0.59105 -3.61959 -34.07310 2.19160 3.21294 3.53100 0.33142 6.61872 7.45683 -7.29716 0.84962 26.65880 -0.00000 -0.00000 0.00000 -107.84400 -35.35720 -110.93600 -19.50750 31.28390 -77.61180 5.55594 9.67997 -0.87718 5.00136 0.56529 3.08115 53.69320 -13.30780 99.54580 3.90878 3.43727 76.67950 -5.55712 9.68432 0.87760 10.16960 -16.90710 4.86752 -10.65560 37.71500 17.48110 -11.44200 -0.14927 0.73815 0.86856 -22.60920 -8.35230 -8.15203 4.26271 -6.02649 6.17502 24.56370 -12.17980 1.12144 -20.37330 -0.12947 -4.75566 -6.23564 1.00809 
